<?xml version="1.0" encoding="UTF-8" standalone="no"?>
<!-- Created with Inkscape (http://www.inkscape.org/) -->

<svg
   xmlns:dc="http://purl.org/dc/elements/1.1/"
   xmlns:cc="http://creativecommons.org/ns#"
   xmlns:rdf="http://www.w3.org/1999/02/22-rdf-syntax-ns#"
   xmlns:svg="http://www.w3.org/2000/svg"
   xmlns="http://www.w3.org/2000/svg"
   xmlns:sodipodi="http://sodipodi.sourceforge.net/DTD/sodipodi-0.dtd"
   xmlns:inkscape="http://www.inkscape.org/namespaces/inkscape"
   width="155.11031"
   height="44.945702"
   id="svg2"
   version="1.1"
   inkscape:version="0.47 r22583"
   sodipodi:docname="seisstar_logo.svg">
  <defs
     id="defs4">
    <inkscape:perspective
       sodipodi:type="inkscape:persp3d"
       inkscape:vp_x="0 : 526.18109 : 1"
       inkscape:vp_y="0 : 1000 : 0"
       inkscape:vp_z="744.09448 : 526.18109 : 1"
       inkscape:persp3d-origin="372.04724 : 350.78739 : 1"
       id="perspective10" />
  </defs>
  <sodipodi:namedview
     id="base"
     pagecolor="#ffffff"
     bordercolor="#666666"
     borderopacity="1.0"
     inkscape:pageopacity="0.0"
     inkscape:pageshadow="2"
     inkscape:zoom="3.959798"
     inkscape:cx="117.25067"
     inkscape:cy="-6.0949557"
     inkscape:document-units="px"
     inkscape:current-layer="g2867"
     showgrid="false"
     inkscape:window-width="1503"
     inkscape:window-height="743"
     inkscape:window-x="462"
     inkscape:window-y="48"
     inkscape:window-maximized="0" />
  <metadata
     id="metadata7">
    <rdf:RDF>
      <cc:Work
         rdf:about="">
        <dc:format>image/svg+xml</dc:format>
        <dc:type
           rdf:resource="http://purl.org/dc/dcmitype/StillImage" />
        <dc:title></dc:title>
      </cc:Work>
    </rdf:RDF>
  </metadata>
  <g
     inkscape:label="Layer 1"
     inkscape:groupmode="layer"
     id="layer1"
     transform="translate(-148.95428,-367.41648)">
    <text
       xml:space="preserve"
       style="font-size:40px;font-style:normal;font-weight:normal;fill:#000000;fill-opacity:1;stroke:none;font-family:Bitstream Vera Sans"
       x="374.28571"
       y="589.50507"
       id="text2820"><tspan
         sodipodi:role="line"
         id="tspan2822"
         x="374.28571"
         y="589.50507" /></text>
    <g
       id="g2828">
      <g
         id="g2867">
        <g
           id="g2897">
          <g
             style="font-size:40px;font-style:normal;font-weight:normal;line-height:125%;fill:#000000;fill-opacity:1;stroke:none;font-family:Bitstream Vera Sans"
             id="text2816">
            <path
               d="m 148.95428,412.36218 0,-8.28 9.396,1.368 0,1.8 18.216,0 0,-3.168 -27.612,-4.356 0,-12.564 37.008,0 0,8.748 -9.396,-1.44 0,-2.196 -18.216,0 0,3.42 27.612,4.356 0,12.312 -37.008,0"
               style="font-size:36px;font-variant:normal;font-stretch:normal;text-align:start;line-height:125%;writing-mode:lr-tb;text-anchor:start;font-family:Stalin One;-inkscape-font-specification:Stalin One"
               id="path2856" />
            <path
               d="m 189.23772,397.96218 0,-4.68 36.36,0 0,9.54 -22.86,3.24 0,1.62 13.86,0 0,-1.62 9,-0.9 0,7.2 -31.86,0 0,-14.4 -4.5,0 m 13.5,3.456 13.86,-1.836 0,-1.62 -13.86,0 0,3.456"
               style="font-size:36px;font-variant:normal;font-stretch:normal;text-align:start;line-height:125%;writing-mode:lr-tb;text-anchor:start;font-family:Stalin One;-inkscape-font-specification:Stalin One"
               id="path2858" />
            <path
               d="m 228.82365,397.96218 0,-4.68 13.5,0 0,19.08 -9,0 0,-14.4 -4.5,0 m 4.5,-7.2 0,-5.04 9,0 0,5.04 -9,0"
               style="font-size:36px;font-variant:normal;font-stretch:normal;text-align:start;line-height:125%;writing-mode:lr-tb;text-anchor:start;font-family:Stalin One;-inkscape-font-specification:Stalin One"
               id="path2860" />
            <path
               d="m 248.79803,412.36218 0,-7.2 9,0.9 0,1.62 13.86,0 0,-1.62 -22.86,-3.24 0,-9.54 31.86,0 0,7.2 -9,-0.9 0,-1.62 -13.86,0 0,1.44 22.86,3.24 0,9.72 -31.86,0"
               style="font-size:36px;font-variant:normal;font-stretch:normal;text-align:start;line-height:125%;writing-mode:lr-tb;text-anchor:start;font-family:Stalin One;-inkscape-font-specification:Stalin One"
               id="path2862" />
          </g>
          <g
             style="font-size:40px;font-style:normal;font-weight:normal;line-height:125%;fill:#000000;fill-opacity:1;stroke:none;font-family:Bitstream Vera Sans"
             id="text2824">
            <path
               d="m 278.10859,384.63648 7.014,-4.032 -7.014,-4.032 2.982,-5.166 7.014,4.032 0,-8.022 5.964,0 0,8.022 7.014,-4.032 2.982,5.166 -7.014,4.032 7.014,4.032 -2.982,5.166 -7.014,-4.032 0,8.022 -5.964,0 0,-8.022 -7.014,4.032 -2.982,-5.166"
               style="font-size:42px;font-variant:normal;font-stretch:normal;text-align:start;line-height:125%;writing-mode:lr-tb;text-anchor:start;font-family:Stalin One;-inkscape-font-specification:Stalin One"
               id="path2865" />
          </g>
        </g>
      </g>
    </g>
  </g>
</svg>
